<svg width="19" height="19" viewBox="0 0 19 19" fill="none" xmlns="http://www.w3.org/2000/svg">
<path d="M1.61327 2.49945H15.023C15.0634 2.49945 15.1002 2.5149 15.1381 2.52648L15.4677 1.42517C15.5725 1.07493 15.8902 0.835571 16.2503 0.835571H17.8866C18.1125 0.835571 18.2957 1.02182 18.2957 1.25155V2.08347C18.2957 2.3132 18.1125 2.49945 17.8866 2.49945H16.8563L14.3002 11.0402L15.2549 12.1726C15.6322 12.6202 15.8021 13.2369 15.6284 13.7993C15.4063 14.5186 14.782 14.9784 14.0622 14.9784H2.34116C2.11523 14.9784 1.93205 14.7922 1.93205 14.5624V13.7305C1.93205 13.5008 2.11523 13.3145 2.34116 13.3145H14.0622L12.7654 11.7762C12.7328 11.7375 12.7088 11.6938 12.6841 11.6507H4.75655C4.12247 11.6507 3.54546 11.2783 3.27546 10.695L0.420744 4.52682C0.338862 4.34931 0.295715 4.1523 0.295715 3.95688V3.83908C0.295715 3.09926 0.885612 2.49945 1.61327 2.49945Z" fill="#F9FBFF"/>
<path d="M13.4743 18.8356C12.5867 18.8356 11.8671 18.1161 11.8671 17.2285C11.8671 16.3409 12.5867 15.6213 13.4743 15.6213C14.3619 15.6213 15.0814 16.3409 15.0814 17.2285C15.0814 18.1161 14.3619 18.8356 13.4743 18.8356Z" fill="white"/>
<path d="M3.83146 18.8356C2.94386 18.8356 2.22431 18.1161 2.22431 17.2285C2.22431 16.3409 2.94386 15.6213 3.83146 15.6213C4.71906 15.6213 5.4386 16.3409 5.4386 17.2285C5.4386 18.1161 4.71906 18.8356 3.83146 18.8356Z" fill="white"/>
</svg>
